<?xml version="1.0" standalone="no"?>
<svg viewBox="0 0 200 200" xmlns="http://www.w3.org/2000/svg">
  <path fill="#D8CCED" d="M42,-62.8C56.2,-56.2,70.6,-47.5,77,-34.8C83.5,-22,82,-5.2,78.6,10.6C75.3,26.5,70.2,41.4,61.1,54.3C52,67.2,39.1,78.1,23.8,83.8C8.6,89.4,-9,89.9,-23.6,84C-38.2,78,-49.9,65.7,-58.2,52.4C-66.5,39.2,-71.4,25.1,-75.4,9.7C-79.4,-5.7,-82.4,-22.4,-77.6,-36.5C-72.8,-50.6,-60.1,-62.2,-45.9,-68.8C-31.6,-75.3,-15.8,-76.9,-0.9,-75.4C13.9,-73.9,27.8,-69.4,42,-62.8Z" transform="translate(100 100)" />
</svg>
